<?xml version="1.0" encoding="utf-8"?>
<!-- Generator: Adobe Illustrator 24.1.2, SVG Export Plug-In . SVG Version: 6.00 Build 0)  -->
<svg version="1.1" id="Layer_1" xmlns="http://www.w3.org/2000/svg" xmlns:xlink="http://www.w3.org/1999/xlink" x="0px" y="0px"
	 viewBox="0 0 500 500" style="enable-background:new 0 0 500 500;" xml:space="preserve">
<style type="text/css">
	.st0{fill:#5BA8E8;}
</style>
<path class="st0" d="M258.5,104c1.2,0,4.5,1.2,4.5,1.2c3.3,1.7,4.9,5.5,3.8,9l-18.5,62c-1.1,3.5,0.6,7.3,3.8,9l45.4,23.4
	c3,1.5,6.6,0.9,9-1.5l42.1-43.1c2-2.1,5.1-2.8,7.9-1.9l0,0c4,1.3,6.2,5.7,4.8,9.7l-62.6,183.6c-0.5,1.6-1.6,2.9-2.9,3.8l-31.3,21.4
	c-2.3,1.6-5.3,1.8-7.8,0.5l-106.1-54.6c-2-1-3.4-2.8-3.9-5l-8.3-30.3c-0.5-2-0.1-4.2,1-5.9l109.4-171.9
	C250.9,110,254.7,104,258.5,104z M331.1,227.5c2.5-2.4,20.7-44.3,19.5-45.3c-1.2-1.1-24.5,31-24.5,31
	C321,220.1,328.6,229.9,331.1,227.5z"/>
<g>
	<g>
		<path class="st0" d="M106,429.1c1.5-2.1,4.7-5,11.1-6.2c6.7-1.3,13.5-0.6,19.1,1c1-0.6,2.5-1.4,4.3-1.6c3.1-0.4,4.8,0.9,3.6,2.4
			c-0.5,0.5-1,1.1-1.5,1.5c0.7,0.3,1.4,0.7,2.1,1c6-2.2,9.8-3.1,13.2-3.3c0.8,0,1.1,1,0.4,1.4c-4.3,2.7-5.7,2.5-5.6,4.7
			c0.1,1.8,3.1,4.5,5.4,6.1c0.6,0.4,0.2,1.4-0.5,1.3c-3.9-0.7-10.1-3.2-13.1-4.7c-0.8,0.5-1.9,1.1-3.3,1.8c0.5,0.4,0.9,0.9,1.4,1.4
			c1.2,1.5-0.5,2.7-3.6,2.4c-1.8-0.2-3.3-1-4.3-1.6c-2.1,0.5-4.4,0.8-6.9,0.9c-0.7,0-1.4,0-2.1,0c0.7,2,0,4.2-3.3,3.3
			c-2.4-0.7-4.1-2.2-5.2-3.5c-3.8-0.4-7.5-1.6-10.8-4.3C105.4,432.1,105.1,430.3,106,429.1z M111.6,426.2c-1.1,0-2,0.9-2,2
			c0,1.1,0.9,2,2,2s2-0.9,2-2C113.6,427.1,112.7,426.2,111.6,426.2z"/>
	</g>
	<path class="st0" d="M357.9,416.6c-0.2,0.2-0.3,0.4-0.5,0.6l13.8,28.8c1,2,0.6,4.5-1.1,6.1c-4.5,4.4-8.6,6.7-14.8,8.4
		c-2.2,0.6-4.5-0.3-5.8-2.2l-17.7-26.5c-0.2,0.1-0.5,0.1-0.7,0.2c-1.2,0.4-2.4,0.2-3.1-0.8l-1.4-2.5c-0.6-1.1-0.2-2.4,0.8-3.1
		c0.1,0,0.2-0.1,0.3-0.1c0,0,0,0,0-0.1l-1.4-2.5c-0.5-0.9-0.4-1.9,0.3-2.6c6.8-7.3,13.7-11.2,23.6-13.5c1-0.2,1.9,0.2,2.4,1.1
		l1.4,2.5c0,0,0,0,0,0c0.1-0.1,0.1-0.1,0.2-0.2c1.1-0.6,2.4-0.2,3.1,0.8l1.4,2.5C359.4,414.6,359.5,414.7,357.9,416.6z"/>
	<path class="st0" d="M108.4,218.9c-3-2.5-3.2-4.7-3.7-8.1c-0.8-5.7-2.4-11.2-6.8-16.3c-2.2-2.5-6.6-5.6-10.2-5.9l-0.6-1.4l0.2-0.1
		c0.6-0.2,0.8-0.9,0.6-1.5l-1.8-4.5c-0.2-0.6-0.9-0.8-1.5-0.6l-10.5,4.3c-0.6,0.2-0.8,0.9-0.6,1.5l1.8,4.5c0.2,0.6,0.9,0.8,1.5,0.6
		l0.2-0.1l0.7,1.6c-0.8,1.1-1.5,2.5-1.9,4c-2.4,7.8,0,17,4.9,23.4c1.6,2,4,4.9,3.9,7.7c-0.7,17.2,9.9,34.2,16.2,43.5
		c1.2,1.8,2.4,4.9,6.2,2.4c0.9-0.6,0.2-1.9,0.6-2.9c0.4-1,1.1-1.9,2.2-2.1c1-0.1,2,0.6,2.8,1.3c1.5,1.4,2.5,2.3,4.3,0.8
		c0.7-0.6,1.9-1.3,1.9-2.2c0-0.7-0.2-1.4,0-2c0.2-1,1.6-2,2.6-1.9c1.4,0.2,1.6,2.1,2.9,2.2c0.2,0,0.5,0,0.8,0
		c1.2-0.1,2.7-0.7,2.9-1.8c0.3-1.1-0.1-2.9-0.3-4.1C126.7,252.3,120.3,228.9,108.4,218.9z"/>
	<path class="st0" d="M61.6,128.2c4.1-5.9,11.9-9.8,18.1-13c1.7-0.9,3.6-1.8,5.2-2.5c5.3-8.8,12.1-16.7,19.4-23.7
		c8.7-8.4,18.1-15.2,29.6-19.5c0.5-3.8,0.8-7.9,0.2-11.7c-0.7-4,0.4-8.4,0.2-12.2c-0.1-1.3-2.8-17,2.3-11.1c3.2,3.7,5,9.9,6.2,14.7
		c1.6,6,2.8,12.2,3.1,18.4c2.2,0.2,4.7,0.9,6.6,1.9c1.3-0.4,2.5-0.9,3.4-1.4c7.5-4,25.2-14.4,30.3-1.9c0.5,1.1-0.5,2.7-1.7,2.8
		c-0.9,0.1-1.3-0.1-1.3-0.1s-0.6,2.5-2.2,4.1c-4.5,4.4-9.5,7.1-16.1,7.5c-1.2,0.8-2.3,1.5-3.3,2.2c0.2,0.8,0.3,1.6,0.4,2.4
		c0.3,2.8,0.4,5.5,0.4,8.3c1.9,0,3.9,0.3,5.3,1c7.7,4,12.6,18.3,12.9,26.8c0.1,1.8,0.4,7.7-2.6,7.8c-1.6,0.1-3.3-2.5-3.8-3.7
		c-2.2-4.9-4.7-9.9-6.9-14.8c-1.3-2.9-2.6-6.7-5.3-8.7c-0.1-0.1-0.2-0.1-0.3-0.2c-1.1,6.6-3.8,14.4-10.2,17.6
		c-12.5,6.3-27.9,6.3-41.6,6.9c-0.7,1.4-1.6,3.1-2.5,4.4c-2.3,3.8-5.2,8.8-10.2,8.9c-4-0.2-2.3-1.8-3.6-2c-1.3-0.3-3.4-0.1-4.4-1.4
		c-1-1.3,0.7-2.8,0.5-3.5c-0.2-0.7-2.1-1.2,1.1-3.5c1-0.7,1.8-1.4,2.4-2.1c-3.3,0.1-6.5,0.2-9.8,0.2c-2-0.8-2.8-2.1-2.7-4.3
		c-1.5,0.9-3.4,1.9-5.4,3.3c-3.9,2.8-4.3,1.9-5.4,2.2c-1.1,0.3-3.8,2.2-5.8,2.6c-2,0.4-0.9-1.1-0.9-1.7
		C63.4,128.5,59.8,131.2,61.6,128.2z M175,65.8c0,0.9,1.2,1.5,2,1.4s2-0.5,2-1.3c0.1-0.9-1-1.6-1.9-1.4
		C176.4,64.6,175.1,65,175,65.8z"/>
	<path class="st0" d="M444.8,371.1c-2.5-0.1-6.4-1.9-8.8-1.4c-0.9,0.2-1.6,4.2,1.3,6c0.9,0.6,0.1,2.1-1,2.4
		c-5.7,1.4-13.4,1.6-19,0.4c0.3,0.8,0.3,1.5-0.4,1.7c-1.7,0.7-3.2,1.2-5.1-0.2c-1.1-0.8-1.4-2.9-1.4-4.5c-2.6-1.5-1.8-1.7-4-3.2
		c-1.2-0.8-3.2-1.6-4.3-2.1c-1-0.4-1.1-1.8-0.2-2.4c1-0.6,3-1.4,4.2-2.5c2.8-2.8,5.1-8.8,11.3-10.7c5.4-1.6,13.3-2.5,19.1-2.2
		c1,0,1.6,1.2,1,2.1c-2.1,3.2-3.8,7.7-1.6,9c2.6,1.6,8.7-3.6,10.1-2.2C447.6,362.7,448.1,371.2,444.8,371.1z M411.4,362
		c-1.2,0-2.2,1-2.2,2.2c0,1.2,1,2.2,2.2,2.2c1.2,0,2.2-1,2.2-2.2C413.6,363,412.6,362,411.4,362z"/>
	<path class="st0" d="M453.9,144.6c-4.1-0.4-8.3-0.3-12.2,0.4c-5,0.9-10.5,0.3-15.4-1.4c-4.1,3.2-4.6,4.8-7.8,5.5
		c-3.6,1.2-5.4,2.6-6.4,4.1c-0.8,1.2-3.2,0.7-3.2-0.7c-0.2-7.1,4.3-15.1,11-17.9c-18.7-16.9-36.6-29.4-60.8-36.4
		c-8.5-2.5-17.1-4.5-25.7-6.5c1.2,4.1,3.2,7.8,5.3,11.5c1.1,1.9-0.7,3.9-3.1,3.4c-8.6-2-15.1-9.6-18-17.6c-0.1-0.1-0.1-0.3-0.1-0.5
		c-4.7-0.8-9.6-1.4-14.2-2c-7-0.9-14.4-3.8-21.4-3.7c-3.6,0.1-7.8,1.5-11.5,1.1c-2.6-0.3-3.9-3.5-2.1-5.2c2.7-2.4,6-2.8,9.5-3.1
		c10-16.2,31.2-23.4,49.3-23.5c7.6,0,14.9,0.5,22.3,1.9c0.1-0.5,0.3-1,0.6-1.4c5.2-5.9,13.1-10.3,21.2-8.8c1.4,0.3,2.1,2.2,1.2,3.7
		c-1.2,2-1.8,4.3-2.1,7.1c-0.3,2.1-0.2,4.8-0.2,7.1c0,0,0,0,0,0c4.2,2.2,8.3,4.7,12.2,7.4c20.3,13.8,35.7,40.7,43.1,63.8
		c10.3-1.7,21.9,3.4,30,8.9C456.9,142.7,455.9,144.8,453.9,144.6z M300.4,69.3c-1.3,0.3-2.1,1.2-1.8,2.1c0.3,0.9,1.6,1.5,2.8,1.2
		c1.3-0.3,2.1-1.2,1.8-2.1S301.6,69.1,300.4,69.3z"/>
	<g>
		<path class="st0" d="M74.4,318.7C74.4,318.7,74.4,318.7,74.4,318.7c-1.1,0.1-1.8,1-1.7,2.1l0.8,8.9c-0.9,0.7-2,1.1-3.2,0.4l-1-8.4
			c-0.1-1-1.1-1.8-2.1-1.7c-1,0.1-1.8,1.1-1.7,2.1l1,8.4c-1,1-2.1,0.9-3.1,0.5l-1.1-8.5c-0.1-1-1.1-1.8-2.1-1.7c0,0,0,0,0,0
			c-1,0.1-1.8,1.1-1.7,2.1L60,335c0,0.1,0,0.1,0,0.2c0.8,3.4,3.9,5.6,7.3,5.2l0.3,0l5.6,48.1c0.1,1,1.1,1.8,2.1,1.7
			c1-0.1,1.8-1.1,1.7-2.1l-5.6-48.1l0.3,0c3.4-0.4,6-3.3,5.9-6.8c0,0,0-0.1,0-0.1l-1.1-12.5C76.4,319.4,75.5,318.6,74.4,318.7z"/>
		<path class="st0" d="M95.9,321.8c-1.3-3.7-4.6-5.1-7.4-4.8c-2.9,0.3-5.7,2.9-6.7,6.4c-0.9,3.4-0.5,7.2-0.4,7.5
			c0,0,0.3,3.8,1.1,5.7c1.4,3.5,6.6,4.8,6.6,4.8l5.2,44.3c0.1,1,1,1.7,2,1.5c1-0.1,1.7-1,1.5-2L92.5,341c0,0,5.3-1.7,5.7-6.4
			c0.1-1.6-0.1-3.6-0.5-6.8C97.4,325.8,96.6,323.9,95.9,321.8z"/>
	</g>
	<g>
		<path class="st0" d="M426.3,213.5l8.2,5.2c1.2,0.8,1.6,2.4,0.8,3.7l-6.7,10.6c-0.8,1.3-2.5,1.6-3.8,0.8l-8-5.5
			c-1.2-0.8-1.5-2.4-0.7-3.6l6.5-10.3C423.4,213,425.1,212.7,426.3,213.5z"/>
		<path class="st0" d="M427.1,231.8c1.1,0.7,2.1,1.7,2.7,2.9l5.7,10.3c1.3,2.3,1.3,5.1,0.1,7.5l-13.5,26.7c-0.2,0.5-0.5,0.9-0.8,1.3
			l-20,25.6c-2.5,3.2-6.9,4-10.4,1.9l-20.7-12.5c-3.8-2.3-5-7.1-2.7-10.9c9-15.3,30.3-51.2,32.3-54c1.9-2.7,9.5-4,14.1-4.8
			c1.9-0.3,3.9,0.1,5.6,1.1L427.1,231.8z M427.7,253.7l-18,21.2c-0.8,0.9-0.6,2.4,0.5,3l3,1.9c1.2,0.8,2.8,0.3,3.4-1
			c2.7-5.6,9.5-19.5,11.7-24.7C428.5,253.7,428,253.3,427.7,253.7z"/>
	</g>
	<path class="st0" d="M212.7,411.9c0.1-0.8,0.7-1.4,1.6-1.4c0.7,0,1.6,0,25.8,11.9c11.8,5.8,23.5,11.7,23.6,11.7
		c0.3,0.2,0.6,0.5,0.8,0.8l8.4,19.8c0.3,0.8,0,1.8-0.9,2.1c-0.8,0.3-1.8,0-2.1-0.9l-8.2-19.2c-17.3-8.7-45-22.3-47.6-23
		c-0.8-0.1-1.4-0.7-1.4-1.6C212.7,412,212.7,411.9,212.7,411.9z"/>
</g>
</svg>
