<?xml version="1.0" encoding="utf-8"?>
<!-- Generator: Adobe Illustrator 24.1.0, SVG Export Plug-In . SVG Version: 6.00 Build 0)  -->
<svg version="1.1" id="Layer_1" xmlns="http://www.w3.org/2000/svg" xmlns:xlink="http://www.w3.org/1999/xlink" x="0px" y="0px"
	 viewBox="0 0 204 39" style="enable-background:new 0 0 204 39;" xml:space="preserve">
<g>
	<path d="M19.8,30.5c-0.1,0-0.2,0-0.3-0.1c-8-6-7.7-15-7.7-15.4c0-0.2,0.1-0.3,0.3-0.4l7.5-4c0.1-0.1,0.3-0.1,0.5,0l7.5,4
		c0.2,0.1,0.3,0.2,0.3,0.4c0,0.4,0.3,9.5-7.7,15.4C20,30.5,19.9,30.5,19.8,30.5z M12.8,15.3c0,1.5,0.5,9,7,14.1
		c6.6-5.1,7-12.5,7-14.1l-7-3.7L12.8,15.3z"/>
	<path d="M21.8,12.6c-0.1,0-0.1,0-0.2,0c-0.3-0.1-0.4-0.4-0.3-0.6c0.3-0.7,0.4-1.5,0.4-2.4c0-2.4-1.1-4-2-4s-2,1.6-2,4
		c0,0.9,0.1,1.7,0.4,2.4c0.1,0.3,0,0.5-0.3,0.6c-0.3,0.1-0.5,0-0.6-0.3c-0.3-0.8-0.5-1.8-0.5-2.8c0-2.8,1.3-5,3-5s3,2.2,3,5
		c0,1-0.2,2-0.5,2.8C22.2,12.5,22,12.6,21.8,12.6z"/>
	<path d="M22.1,8.5h-0.9c-0.3,0-0.5-0.2-0.5-0.5s0.2-0.5,0.5-0.5h0.9c0.3,0,0.5,0.2,0.5,0.5S22.4,8.5,22.1,8.5z"/>
	<path d="M18.3,8.5h-0.9c-0.3,0-0.5-0.2-0.5-0.5s0.2-0.5,0.5-0.5h0.9c0.3,0,0.5,0.2,0.5,0.5S18.6,8.5,18.3,8.5z"/>
	<path d="M21.8,23.5h-4c-0.2,0-0.3-0.1-0.4-0.3l-2-3.5c-0.1-0.2-0.1-0.3,0-0.5l2-3.5c0.1-0.2,0.3-0.3,0.4-0.3h4
		c0.2,0,0.3,0.1,0.4,0.3l2,3.5c0.1,0.2,0.1,0.3,0,0.5l-2,3.5C22.1,23.4,22,23.5,21.8,23.5z M18.1,22.5h3.4l1.7-3l-1.7-3h-3.4l-1.7,3
		L18.1,22.5z"/>
	<path d="M26.7,20h-2.9c-0.2,0-0.3-0.1-0.4-0.3l-2-3.5c-0.1-0.2-0.1-0.3,0-0.5l1.7-3c0.1-0.2,0.4-0.3,0.7-0.2
		c0.2,0.1,0.3,0.4,0.2,0.7L22.4,16l1.7,3h2.6c0.3,0,0.5,0.2,0.5,0.5S27,20,26.7,20z"/>
	<path d="M15.8,20h-2.9c-0.3,0-0.5-0.2-0.5-0.5s0.2-0.5,0.5-0.5h2.6l1.7-3l-1.6-2.8c-0.1-0.2-0.1-0.5,0.2-0.7
		c0.2-0.1,0.5-0.1,0.7,0.2l1.7,3c0.1,0.2,0.1,0.3,0,0.5l-2,3.5C16.1,19.9,16,20,15.8,20z"/>
	<path d="M23.6,26.7c-0.2,0-0.3-0.1-0.4-0.3l-1.7-2.9h-3.4l-1.7,2.9c-0.1,0.2-0.4,0.3-0.7,0.2c-0.2-0.1-0.3-0.4-0.2-0.7l1.8-3.2
		c0.1-0.2,0.3-0.3,0.4-0.3h4c0.2,0,0.3,0.1,0.4,0.3l1.8,3.2c0.1,0.2,0.1,0.5-0.2,0.7C23.8,26.7,23.7,26.7,23.6,26.7z"/>
	<path d="M34.3,15.5h-7c-0.3,0-0.5-0.2-0.5-0.5s0.2-0.5,0.5-0.5h6.2c-2.2-4-6.2-4-7-4L23,13c-0.2,0.2-0.5,0.1-0.7-0.1
		c-0.2-0.2-0.1-0.5,0.1-0.7L26,9.6c0.1-0.1,0.2-0.1,0.2-0.1c0.1,0,6-0.5,8.5,5.3c0.1,0.2,0.1,0.3,0,0.5
		C34.6,15.4,34.5,15.5,34.3,15.5z"/>
	<path d="M12.3,15.5h-7c-0.2,0-0.3-0.1-0.4-0.2c-0.1-0.1-0.1-0.3,0-0.5c2.5-5.8,8.4-5.3,8.5-5.3c0.1,0,0.2,0,0.2,0.1l3.6,2.6
		c0.2,0.2,0.3,0.5,0.1,0.7c-0.2,0.2-0.5,0.3-0.7,0.1l-3.5-2.5c-0.8,0-4.8,0-7,4h6.2c0.3,0,0.5,0.2,0.5,0.5S12.6,15.5,12.3,15.5z"/>
	<path d="M26.3,34.5c-0.2,0-0.3-0.1-0.4-0.2l-4.2-6c-0.2-0.2-0.1-0.5,0.1-0.7c0.2-0.2,0.5-0.1,0.7,0.1l3.7,5.3
		c2-4.5-1.8-8.1-1.8-8.2c-0.2-0.2-0.2-0.5,0-0.7c0.2-0.2,0.5-0.2,0.7,0c0,0,4.8,4.6,1.7,10.1C26.6,34.4,26.5,34.5,26.3,34.5
		C26.3,34.5,26.3,34.5,26.3,34.5z"/>
	<path d="M13.3,34.5C13.3,34.5,13.3,34.5,13.3,34.5c-0.2,0-0.4-0.1-0.4-0.3c-3.1-5.5,1.6-10.1,1.7-10.1c0.2-0.2,0.5-0.2,0.7,0
		c0.2,0.2,0.2,0.5,0,0.7C15,25,11.4,28.5,13.4,33l3.7-5.3c0.2-0.2,0.5-0.3,0.7-0.1c0.2,0.2,0.3,0.5,0.1,0.7l-4.2,6
		C13.6,34.4,13.5,34.5,13.3,34.5z"/>
</g>
<g>
	<g>
		<path d="M54.7,12.7c0,1.3-0.4,2.3-1.2,3s-2,1-3.5,1h-1.1v4.3h-2.6V8.9h3.9c1.5,0,2.6,0.3,3.4,1C54.4,10.5,54.7,11.5,54.7,12.7z
			 M48.9,14.7h0.8c0.8,0,1.4-0.2,1.8-0.5c0.4-0.3,0.6-0.8,0.6-1.4c0-0.6-0.2-1.1-0.5-1.3c-0.3-0.3-0.8-0.4-1.6-0.4h-1.2V14.7z"/>
		<path d="M64.5,21.1l-0.9-2.9h-4.4l-0.9,2.9h-2.8l4.3-12.2H63l4.3,12.2H64.5z M63,16.1c-0.8-2.6-1.3-4.1-1.4-4.5
			c-0.1-0.3-0.2-0.6-0.2-0.8c-0.2,0.7-0.7,2.5-1.6,5.3H63z"/>
		<path d="M74,10.9c-1,0-1.7,0.4-2.3,1.1s-0.8,1.7-0.8,3.1c0,2.7,1,4.1,3.1,4.1c0.9,0,1.9-0.2,3.1-0.6v2.2c-1,0.4-2.1,0.6-3.3,0.6
			c-1.8,0-3.1-0.5-4.1-1.6c-0.9-1.1-1.4-2.6-1.4-4.6c0-1.3,0.2-2.4,0.7-3.3s1.1-1.7,2-2.2c0.9-0.5,1.9-0.8,3-0.8
			c1.2,0,2.4,0.3,3.6,0.9l-0.8,2.1c-0.5-0.2-0.9-0.4-1.4-0.6S74.4,10.9,74,10.9z"/>
		<path d="M79.7,21.1V8.9h2.6v12.2H79.7z"/>
		<path d="M87.9,21.1h-2.5V8.9h7v2.1h-4.4v3.1H92v2.1h-4.1V21.1z"/>
		<path d="M94.7,21.1V8.9h2.6v12.2H94.7z"/>
		<path d="M105.5,10.9c-1,0-1.7,0.4-2.3,1.1s-0.8,1.7-0.8,3.1c0,2.7,1,4.1,3.1,4.1c0.9,0,1.9-0.2,3.1-0.6v2.2
			c-1,0.4-2.1,0.6-3.3,0.6c-1.8,0-3.1-0.5-4.1-1.6c-0.9-1.1-1.4-2.6-1.4-4.6c0-1.3,0.2-2.4,0.7-3.3s1.1-1.7,2-2.2
			c0.9-0.5,1.9-0.8,3-0.8c1.2,0,2.4,0.3,3.6,0.9l-0.8,2.1c-0.5-0.2-0.9-0.4-1.4-0.6S106,10.9,105.5,10.9z"/>
		<path d="M120.4,21.1h-2.6v-10h-3.3V8.9h9.2v2.1h-3.3V21.1z"/>
		<path d="M128.1,16.5v4.7h-2.6V8.9h3.5c1.7,0,2.9,0.3,3.7,0.9c0.8,0.6,1.2,1.5,1.2,2.7c0,0.7-0.2,1.4-0.6,1.9s-1,1-1.7,1.3
			c1.8,2.7,3,4.5,3.6,5.3h-2.9l-2.9-4.7H128.1z M128.1,14.4h0.8c0.8,0,1.4-0.1,1.8-0.4c0.4-0.3,0.6-0.7,0.6-1.3c0-0.6-0.2-1-0.6-1.2
			c-0.4-0.2-1-0.4-1.8-0.4h-0.8V14.4z"/>
		<path d="M143.8,21.1h-7V8.9h7v2.1h-4.4v2.7h4.1v2.1h-4.1V19h4.4V21.1z"/>
		<path d="M153.8,21.1l-0.9-2.9h-4.4l-0.9,2.9h-2.8l4.3-12.2h3.2l4.3,12.2H153.8z M152.3,16.1c-0.8-2.6-1.3-4.1-1.4-4.5
			c-0.1-0.3-0.2-0.6-0.2-0.8c-0.2,0.7-0.7,2.5-1.6,5.3H152.3z"/>
		<path d="M165.3,17.7c0,1.1-0.4,2-1.2,2.6c-0.8,0.6-1.9,1-3.3,1c-1.3,0-2.4-0.2-3.4-0.7v-2.4c0.8,0.4,1.5,0.6,2.1,0.8
			c0.6,0.2,1.1,0.2,1.6,0.2c0.6,0,1-0.1,1.3-0.3s0.5-0.5,0.5-1c0-0.2-0.1-0.5-0.2-0.6c-0.1-0.2-0.3-0.4-0.6-0.5
			c-0.3-0.2-0.8-0.4-1.6-0.8c-0.7-0.4-1.3-0.7-1.7-1s-0.7-0.7-0.9-1.1c-0.2-0.4-0.3-0.9-0.3-1.5c0-1.1,0.4-1.9,1.1-2.5
			c0.7-0.6,1.7-0.9,3-0.9c0.6,0,1.2,0.1,1.8,0.2s1.2,0.4,1.8,0.6l-0.8,2c-0.7-0.3-1.2-0.5-1.6-0.6s-0.8-0.2-1.3-0.2
			c-0.5,0-0.9,0.1-1.1,0.3c-0.3,0.2-0.4,0.5-0.4,0.9c0,0.2,0.1,0.4,0.2,0.6c0.1,0.2,0.3,0.3,0.5,0.5s0.8,0.4,1.6,0.9
			c1.1,0.5,1.9,1.1,2.3,1.6C165.1,16.3,165.3,17,165.3,17.7z"/>
		<path d="M177.4,8.9v7.9c0,0.9-0.2,1.7-0.6,2.4c-0.4,0.7-1,1.2-1.7,1.6c-0.8,0.4-1.7,0.5-2.7,0.5c-1.6,0-2.8-0.4-3.6-1.2
			c-0.9-0.8-1.3-1.9-1.3-3.3V8.9h2.6v7.5c0,0.9,0.2,1.6,0.6,2.1c0.4,0.4,1,0.7,1.9,0.7c0.8,0,1.5-0.2,1.8-0.7s0.6-1.1,0.6-2.1V8.9
			H177.4z"/>
		<path d="M183,16.5v4.7h-2.6V8.9h3.5c1.7,0,2.9,0.3,3.7,0.9c0.8,0.6,1.2,1.5,1.2,2.7c0,0.7-0.2,1.4-0.6,1.9s-1,1-1.7,1.3
			c1.8,2.7,3,4.5,3.6,5.3h-2.9l-2.9-4.7H183z M183,14.4h0.8c0.8,0,1.4-0.1,1.8-0.4c0.4-0.3,0.6-0.7,0.6-1.3c0-0.6-0.2-1-0.6-1.2
			c-0.4-0.2-1-0.4-1.8-0.4H183V14.4z"/>
		<path d="M198.7,21.1h-7V8.9h7v2.1h-4.4v2.7h4.1v2.1h-4.1V19h4.4V21.1z"/>
	</g>
	<g>
		<path d="M148.9,30.2h-0.4v-5.4h3v0.3h-2.6v2.3h2.4v0.4h-2.4V30.2z"/>
		<path d="M157.3,27.4c0,0.9-0.2,1.5-0.6,2c-0.4,0.5-1,0.7-1.8,0.7c-0.8,0-1.3-0.2-1.8-0.7s-0.6-1.2-0.6-2c0-0.9,0.2-1.5,0.6-2
			c0.4-0.5,1-0.7,1.8-0.7c0.8,0,1.3,0.2,1.8,0.7C157,25.9,157.3,26.6,157.3,27.4z M152.8,27.4c0,0.8,0.2,1.4,0.5,1.8
			c0.3,0.4,0.8,0.6,1.5,0.6c0.6,0,1.1-0.2,1.5-0.6c0.3-0.4,0.5-1,0.5-1.8c0-0.8-0.2-1.4-0.5-1.8c-0.3-0.4-0.8-0.6-1.5-0.6
			c-0.6,0-1.1,0.2-1.5,0.6C153,26.1,152.8,26.7,152.8,27.4z"/>
		<path d="M162.8,24.8v3.5c0,0.6-0.2,1.1-0.5,1.5c-0.4,0.3-0.9,0.5-1.5,0.5c-0.6,0-1.1-0.2-1.5-0.5s-0.5-0.8-0.5-1.5v-3.5h0.4v3.5
			c0,0.5,0.1,0.9,0.4,1.2s0.7,0.4,1.2,0.4c0.5,0,0.9-0.1,1.2-0.4s0.4-0.7,0.4-1.2v-3.5H162.8z"/>
		<path d="M168.6,30.2h-0.4l-3.2-4.8h0c0,0.6,0,1,0,1.3v3.5h-0.4v-5.4h0.4l3.2,4.8h0c0-0.4,0-0.9,0-1.3v-3.5h0.4V30.2z"/>
		<path d="M174.6,27.4c0,0.9-0.2,1.6-0.7,2.1c-0.5,0.5-1.2,0.7-2.1,0.7h-1.3v-5.4h1.5c0.9,0,1.5,0.2,2,0.7
			C174.4,25.9,174.6,26.5,174.6,27.4z M174.2,27.4c0-0.8-0.2-1.4-0.6-1.7c-0.4-0.4-1-0.6-1.7-0.6h-1v4.7h0.9
			C173.4,29.8,174.2,29,174.2,27.4z"/>
		<path d="M178.8,28.2h-2.2l-0.8,1.9h-0.4l2.2-5.4h0.2l2.1,5.4h-0.4L178.8,28.2z M176.8,27.9h1.9L178,26c-0.1-0.2-0.1-0.4-0.2-0.6
			c-0.1,0.2-0.1,0.5-0.2,0.6L176.8,27.9z"/>
		<path d="M182.6,30.2h-0.4v-5h-1.8v-0.4h3.9v0.4h-1.8V30.2z"/>
		<path d="M185.5,30.2v-5.4h0.4v5.4H185.5z"/>
		<path d="M192.3,27.4c0,0.9-0.2,1.5-0.6,2c-0.4,0.5-1,0.7-1.8,0.7c-0.8,0-1.3-0.2-1.8-0.7s-0.6-1.2-0.6-2c0-0.9,0.2-1.5,0.6-2
			c0.4-0.5,1-0.7,1.8-0.7c0.8,0,1.3,0.2,1.8,0.7C192.1,25.9,192.3,26.6,192.3,27.4z M187.9,27.4c0,0.8,0.2,1.4,0.5,1.8
			c0.3,0.4,0.8,0.6,1.5,0.6c0.6,0,1.1-0.2,1.5-0.6c0.3-0.4,0.5-1,0.5-1.8c0-0.8-0.2-1.4-0.5-1.8c-0.3-0.4-0.8-0.6-1.5-0.6
			c-0.6,0-1.1,0.2-1.5,0.6C188.1,26.1,187.9,26.7,187.9,27.4z"/>
		<path d="M197.8,30.2h-0.4l-3.2-4.8h0c0,0.6,0,1,0,1.3v3.5h-0.4v-5.4h0.4l3.2,4.8h0c0-0.4,0-0.9,0-1.3v-3.5h0.4V30.2z"/>
	</g>
</g>
</svg>
