<?xml version="1.0" encoding="utf-8"?>
<!-- Generator: Adobe Illustrator 24.1.0, SVG Export Plug-In . SVG Version: 6.00 Build 0)  -->
<svg version="1.1" id="Layer_1" xmlns="http://www.w3.org/2000/svg" xmlns:xlink="http://www.w3.org/1999/xlink" x="0px" y="0px"
	 viewBox="0 0 40 39" style="enable-background:new 0 0 40 39;" xml:space="preserve">
<g>
	<path d="M20,30.5c-0.1,0-0.2,0-0.3-0.1c-8-6-7.7-15-7.7-15.4c0-0.2,0.1-0.3,0.3-0.4l7.5-4c0.1-0.1,0.3-0.1,0.5,0l7.5,4
		c0.2,0.1,0.3,0.2,0.3,0.4c0,0.4,0.3,9.5-7.7,15.4C20.2,30.5,20.1,30.5,20,30.5z M13,15.3c0,1.5,0.5,9,7,14.1c6.6-5.1,7-12.5,7-14.1
		l-7-3.7L13,15.3z"/>
	<path d="M22,12.6c-0.1,0-0.1,0-0.2,0c-0.3-0.1-0.4-0.4-0.3-0.6c0.3-0.7,0.4-1.5,0.4-2.4c0-2.4-1.1-4-2-4s-2,1.6-2,4
		c0,0.9,0.1,1.7,0.4,2.4c0.1,0.3,0,0.5-0.3,0.6c-0.3,0.1-0.5,0-0.6-0.3c-0.3-0.8-0.5-1.8-0.5-2.8c0-2.8,1.3-5,3-5s3,2.2,3,5
		c0,1-0.2,2-0.5,2.8C22.4,12.5,22.2,12.6,22,12.6z"/>
	<path d="M22.4,8.5h-0.9C21.2,8.5,21,8.3,21,8s0.2-0.5,0.5-0.5h0.9c0.3,0,0.5,0.2,0.5,0.5S22.6,8.5,22.4,8.5z"/>
	<path d="M18.5,8.5h-0.9c-0.3,0-0.5-0.2-0.5-0.5s0.2-0.5,0.5-0.5h0.9C18.8,7.5,19,7.7,19,8S18.8,8.5,18.5,8.5z"/>
	<path d="M22,23.5h-4c-0.2,0-0.3-0.1-0.4-0.3l-2-3.5c-0.1-0.2-0.1-0.3,0-0.5l2-3.5c0.1-0.2,0.3-0.3,0.4-0.3h4c0.2,0,0.3,0.1,0.4,0.3
		l2,3.5c0.1,0.2,0.1,0.3,0,0.5l-2,3.5C22.3,23.4,22.2,23.5,22,23.5z M18.3,22.5h3.4l1.7-3l-1.7-3h-3.4l-1.7,3L18.3,22.5z"/>
	<path d="M26.9,20H24c-0.2,0-0.3-0.1-0.4-0.3l-2-3.5c-0.1-0.2-0.1-0.3,0-0.5l1.7-3c0.1-0.2,0.4-0.3,0.7-0.2c0.2,0.1,0.3,0.4,0.2,0.7
		L22.6,16l1.7,3h2.6c0.3,0,0.5,0.2,0.5,0.5S27.2,20,26.9,20z"/>
	<path d="M16,20h-2.9c-0.3,0-0.5-0.2-0.5-0.5s0.2-0.5,0.5-0.5h2.6l1.7-3l-1.6-2.8c-0.1-0.2-0.1-0.5,0.2-0.7c0.2-0.1,0.5-0.1,0.7,0.2
		l1.7,3c0.1,0.2,0.1,0.3,0,0.5l-2,3.5C16.3,19.9,16.2,20,16,20z"/>
	<path d="M23.8,26.7c-0.2,0-0.3-0.1-0.4-0.3l-1.7-2.9h-3.4l-1.7,2.9c-0.1,0.2-0.4,0.3-0.7,0.2c-0.2-0.1-0.3-0.4-0.2-0.7l1.8-3.2
		c0.1-0.2,0.3-0.3,0.4-0.3h4c0.2,0,0.3,0.1,0.4,0.3l1.8,3.2c0.1,0.2,0.1,0.5-0.2,0.7C24,26.7,23.9,26.7,23.8,26.7z"/>
	<path d="M34.5,15.5h-7c-0.3,0-0.5-0.2-0.5-0.5s0.2-0.5,0.5-0.5h6.2c-2.2-4-6.2-4-7-4L23.2,13c-0.2,0.2-0.5,0.1-0.7-0.1
		c-0.2-0.2-0.1-0.5,0.1-0.7l3.6-2.6c0.1-0.1,0.2-0.1,0.2-0.1c0.1,0,6-0.5,8.5,5.3c0.1,0.2,0.1,0.3,0,0.5
		C34.8,15.4,34.7,15.5,34.5,15.5z"/>
	<path d="M12.5,15.5h-7c-0.2,0-0.3-0.1-0.4-0.2C5,15.1,5,15,5,14.8c2.5-5.8,8.4-5.3,8.5-5.3c0.1,0,0.2,0,0.2,0.1l3.6,2.6
		c0.2,0.2,0.3,0.5,0.1,0.7c-0.2,0.2-0.5,0.3-0.7,0.1l-3.5-2.5c-0.8,0-4.8,0-7,4h6.2c0.3,0,0.5,0.2,0.5,0.5S12.8,15.5,12.5,15.5z"/>
	<path d="M26.5,34.5c-0.2,0-0.3-0.1-0.4-0.2l-4.2-6c-0.2-0.2-0.1-0.5,0.1-0.7c0.2-0.2,0.5-0.1,0.7,0.1l3.7,5.3
		c2-4.5-1.8-8.1-1.8-8.2c-0.2-0.2-0.2-0.5,0-0.7c0.2-0.2,0.5-0.2,0.7,0c0,0,4.8,4.6,1.7,10.1C26.9,34.4,26.7,34.5,26.5,34.5
		C26.5,34.5,26.5,34.5,26.5,34.5z"/>
	<path d="M13.5,34.5C13.5,34.5,13.5,34.5,13.5,34.5c-0.2,0-0.4-0.1-0.4-0.3c-3.1-5.5,1.6-10.1,1.7-10.1c0.2-0.2,0.5-0.2,0.7,0
		c0.2,0.2,0.2,0.5,0,0.7c-0.2,0.2-3.8,3.7-1.8,8.2l3.7-5.3c0.2-0.2,0.5-0.3,0.7-0.1c0.2,0.2,0.3,0.5,0.1,0.7l-4.2,6
		C13.8,34.4,13.7,34.5,13.5,34.5z"/>
</g>
</svg>
